<svg width="1734" height="403" viewBox="0 0 1734 403" fill="none" xmlns="http://www.w3.org/2000/svg">
<path d="M39.2695 0.65625C54.0807 0.65625 69.3802 13.6771 85.168 39.7188L164.27 140.305C227.258 57.7852 262.089 13.1888 268.762 6.51562C275.76 2.60938 282.271 0.65625 288.293 0.65625H295.129C309.615 0.65625 320.357 10.7474 327.355 30.9297V39.7188C327.355 50.6237 317.915 66.2487 299.035 86.5938L211.145 201.828C279.992 290.858 318.078 340.988 325.402 352.219L327.355 363.938V370.773C327.355 385.259 317.264 396.001 297.082 403H288.293C273.482 403 258.182 389.979 242.395 363.938L163.293 263.352C100.305 345.871 65.474 390.467 58.8008 397.141C51.8021 401.047 45.2917 403 39.2695 403H32.4336C17.9479 403 7.20573 392.909 0.207031 372.727V363.938C0.207031 353.033 9.64714 337.408 28.5273 317.062L116.418 201.828C47.5703 112.798 9.48438 62.668 2.16016 51.4375L0.207031 39.7188V32.8828C0.207031 18.3971 10.2982 7.65495 30.4805 0.65625H39.2695ZM564.66 0.65625C605.188 0.65625 639.042 21.8151 666.223 64.1328C674.686 82.6875 678.918 99.6146 678.918 114.914V124.68C678.918 164.719 658.41 197.922 617.395 224.289C599.165 234.055 581.262 238.938 563.684 238.938H555.871C541.548 238.938 530.48 228.846 522.668 208.664V200.852C526.574 176.763 538.618 164.719 558.801 164.719C580.285 164.719 594.934 153.651 602.746 131.516C604.048 128.586 604.699 124.354 604.699 118.82C604.699 97.8242 592.655 83.5013 568.566 75.8516L558.801 74.875H425.988V366.867C421.919 390.956 410.201 403 390.832 403H383.996C369.51 403 358.768 392.909 351.77 372.727V32.8828C351.77 18.3971 361.861 7.65495 382.043 0.65625H564.66ZM817.59 0.65625H998.254C1012.74 0.65625 1023.48 10.7474 1030.48 30.9297V39.7188C1030.48 59.0872 1018.44 70.806 994.348 74.875H823.449C802.128 74.875 787.479 85.6172 779.504 107.102L777.551 120.773C777.551 140.793 789.27 155.116 812.707 163.742C837.121 163.742 852.095 172.531 857.629 190.109C858.931 192.714 859.582 196.294 859.582 200.852V202.805C855.676 226.893 843.632 238.938 823.449 238.938C801.965 238.938 787.316 250.005 779.504 272.141C778.202 275.07 777.551 279.302 777.551 284.836C777.551 305.832 789.595 320.155 813.684 327.805L823.449 328.781H994.348C1018.44 332.85 1030.48 344.569 1030.48 363.938V370.773C1030.48 385.259 1020.39 396.001 1000.21 403H817.59C777.062 403 743.208 381.841 716.027 339.523C707.564 320.806 703.332 303.879 703.332 288.742V278.977C703.332 252.121 714.074 226.405 735.559 201.828C714.074 177.251 703.332 151.535 703.332 124.68V114.914C703.332 73.4102 724.816 39.556 767.785 13.3516C785.038 4.88802 801.639 0.65625 817.59 0.65625ZM1093.96 1.63281C1113.49 1.63281 1125.21 13.6771 1129.11 37.7656V163.742H1307.82V37.7656C1311.73 13.6771 1323.45 1.63281 1342.98 1.63281H1349.82C1363.98 1.63281 1374.72 11.3984 1382.04 30.9297V368.82C1382.04 384.771 1372.28 396.164 1352.75 403H1342.98C1323.45 403 1311.73 390.956 1307.82 366.867V238.938H1129.11V366.867C1125.21 390.956 1113.49 403 1093.96 403H1087.12C1072.96 403 1062.22 393.234 1054.89 373.703V35.8125C1054.89 19.862 1064.66 8.46875 1084.19 1.63281H1093.96ZM1561.73 0.65625H1578.33C1620.16 0.65625 1659.55 20.1875 1696.5 59.25C1721.24 92.6159 1733.61 124.842 1733.61 155.93V247.727C1733.61 289.556 1714.07 328.944 1675.01 365.891C1641.65 390.63 1609.42 403 1578.33 403H1561.73C1519.9 403 1480.51 383.469 1443.57 344.406C1418.83 311.04 1406.46 278.814 1406.46 247.727V155.93C1406.46 114.1 1425.99 74.7122 1465.05 37.7656C1498.42 13.026 1530.64 0.65625 1561.73 0.65625ZM1480.68 165.695V237.961C1480.68 278.488 1500.86 307.134 1541.22 323.898C1549.85 327.154 1559.94 328.781 1571.5 328.781C1606 328.781 1632.69 311.203 1651.57 276.047C1656.78 263.677 1659.39 250.982 1659.39 237.961V165.695C1659.39 125.168 1639.2 96.5221 1598.84 79.7578C1590.21 76.5026 1580.12 74.875 1568.57 74.875C1534.06 74.875 1507.37 92.4531 1488.49 127.609C1483.28 139.816 1480.68 152.512 1480.68 165.695Z" fill="#B3D26B"/>
</svg>
